<svg xmlns="http://www.w3.org/2000/svg" viewBox="0 0 47.5 47.5"><defs><clipPath id="a"><path d="M0 38h38V0H0v38Z"/></clipPath></defs><g clip-path="url(#a)" transform="matrix(1.25 0 0 -1.25 0 47.5)"><path fill="#292f33" d="M1 27s0 4 4 4h28s4 0 4-4V9s0-4-4-4H5S1 5 1 9v18Z"/><path fill="#ccd6dd" d="M12 18c0-5.523 4.477-10 10-10s10 4.477 10 10-4.477 10-10 10-10-4.477-10-10"/><path fill="#292f33" d="M30 18a8 8 0 0 0-8-8 8 8 0 1 0 0 16 8 8 0 0 0 8-8"/><path fill="#3b88c3" d="M27 18a5 5 0 0 0-5-5 5 5 0 0 0-5 5 5 5 0 0 0 5 5 5 5 0 0 0 5-5"/><path fill="#fff" d="M35 27.5a1.5 1.5 0 1 0-3 0 1.5 1.5 0 0 0 3 0"/><path fill="#f5f8fa" d="M13 27.5a1.5 1.5 0 0 0-1.5-1.5h-5a1.5 1.5 0 1 0 0 3h5a1.5 1.5 0 0 0 1.5-1.5"/><path fill="#66757f" d="M5 32s0 1 1 1h6s1 0 1-1v-1H5v1z"/></g></svg>